<?xml version="1.0" encoding="UTF-8"?>
<svg width="120px" height="120px" viewBox="0 0 352 385" version="1.1" xmlns="http://www.w3.org/2000/svg" xmlns:xlink="http://www.w3.org/1999/xlink">
    <!-- Generator: Sketch 51.2 (57519) - http://www.bohemiancoding.com/sketch -->
    <title>Slice 1</title>
    <desc>Created with Sketch.</desc>
    <defs></defs>
    <g id="Page-1" stroke="none" stroke-width="1" fill="none" fill-rule="evenodd">
        <ellipse id="Oval" stroke="#000000" stroke-width="2" fill-rule="nonzero" cx="180" cy="192" rx="144" ry="151"></ellipse>
        <g id="mouseArrow" transform="translate(130.000000, 95.000000)" fill="#000000" fill-rule="nonzero">
            <g id="Group" transform="translate(50.000000, 75.068807) scale(-1, 1) rotate(-180.000000) translate(-50.000000, -75.068807) translate(0.015244, 0.137615)">
                <path d="M69.1814024,149.389908 C67.3643293,148.811927 66.0609756,147.931193 64.3643293,146.108563 C61.5472561,143.099388 60.3963415,139.48318 60.6996951,134.379205 C60.972561,129.425076 63.0320122,124.351682 65.6981707,122.102446 C69,119.33792 73.1814024,119.914373 76.9085366,123.681957 C80.3628049,127.17737 82.7560976,132.707951 82.785061,137.235474 C82.8445122,145.651376 76.2103659,151.577982 69.1814024,149.389908 Z M74.3307927,144.770642 C76.4512195,143.67737 77.6631098,141.883792 78.2088415,139.058104 C78.8140244,135.746177 76.8765244,130.366972 73.9984756,127.267584 C70.8780488,123.925076 69.0289634,124.076453 67.0304878,127.874618 C65.1219512,131.490826 64.5762195,136.686544 65.7881098,139.969419 C67.3323171,144.102446 71.2713415,146.321101 74.3307927,144.770642 Z" id="Shape"></path>
                <path d="M61.5167683,115.902141 C56.9420732,115.35474 52.4893293,113.622324 50.2469512,111.587156 C49.5503049,110.91896 44.7027439,107.180428 39.5228659,103.259939 L30.070122,96.1192661 L19.9817073,93.1712538 C14.4070122,91.559633 9.4695122,90.0718654 9.0152439,89.8883792 C7.10670732,89.1284404 6.68292683,86.8501529 8.16768293,85.3608563 C8.65243902,84.8746177 9.34908537,84.4801223 9.71341463,84.4801223 C10.0777439,84.4801223 15.3490854,85.9388379 21.4679878,87.7324159 L32.5868902,90.9541284 L42.1295732,98.1865443 C47.3704268,102.137615 51.7027439,105.357798 51.7332317,105.327217 C51.7942073,105.296636 50.3993902,99.0978593 48.6737805,91.5611621 L45.5228659,77.8868502 L34.6463415,63.3302752 L23.7698171,48.7737003 L12.5304878,27.8058104 C-0.650914634,3.1911315 0.0152439024,4.4969419 0.0152439024,3.49388379 C0.0152439024,2.46024465 1.5304878,0.911314985 2.55945122,0.911314985 C3.67987805,0.911314985 4.71036585,1.4587156 5.22560976,2.37003058 C5.49847561,2.82568807 10.8307927,12.7629969 17.1310976,24.4633028 L28.554878,45.733945 L39.6128049,60.5642202 L50.7012195,75.3944954 L54.5792683,92.3211009 C56.7301829,101.619266 58.4878049,109.33792 58.4878049,109.460245 C58.4878049,109.85474 61.5777439,110.310398 64.2439024,110.310398 C68.9390244,110.310398 73.5152439,109.094801 77.5137195,106.724771 C79.0594512,105.813456 79.3917683,105.478593 79.2713415,104.992355 C79.179878,104.657492 75.7865854,97.0611621 71.757622,88.1269113 L64.3948171,71.8685015 L64.4862805,56.8256881 L64.6067073,41.7828746 L63.6981707,42.6941896 C63.2134146,43.2110092 60.5167683,46.0672783 57.6996951,49.0764526 C54.9131098,52.0840979 52.3368902,54.6987768 52.0045732,54.911315 C51.035061,55.4892966 49.8231707,55.3669725 48.9740854,54.6376147 C48.5503049,54.2431193 47.1265244,52.5107034 45.7621951,50.7782875 C42.945122,47.1009174 42.7027439,46.1590214 44.2164634,44.6391437 C45.8521341,42.9984709 47.7301829,43.7278287 49.8521341,46.7966361 C50.3064024,47.4648318 50.7911585,47.9816514 50.9435976,47.9510703 C51.0640244,47.8899083 54.4283537,44.3654434 58.4268293,40.0795107 C62.4557927,35.795107 65.9405488,32.2094801 66.2134146,32.087156 C67.2743902,31.6926606 68.5167683,31.9051988 69.2439024,32.6651376 L70.0015244,33.3944954 L70.0015244,51.9006116 L70.0015244,70.3761468 L76.9969512,86.029052 C80.875,94.6284404 84.0564024,101.70948 84.1158537,101.740061 C84.2987805,101.98318 85.2972561,101.133028 89.6905488,97.0902141 C92.2042683,94.7507645 94.3262195,92.5626911 94.4161585,92.1972477 C94.9314024,90.1314985 92.3567073,84.3272171 87.0853659,75.5749235 C83.1463415,69.1024465 82.8445122,68.1911315 84.2073171,66.7324159 C85.2073171,65.6681957 87.1768293,65.6391437 88.0853659,66.6116208 C89.054878,67.704893 95.4771341,78.5535168 97.0228659,81.7446483 C98.992378,85.7859327 99.75,88.1865443 99.9314024,90.9525994 C100.082317,93.5657492 99.6280488,95.2981651 98.3871951,96.6345566 C96.3871951,98.7614679 88.0868902,106.17737 85.5716463,108.061162 C80.4512195,111.920489 75.4832317,114.351682 70.9085366,115.293578 C68.5152439,115.779817 63.3033537,116.114679 61.5167683,115.902141 Z" id="Shape"></path>
                <path d="M39.0365854,27.3792049 C29.0990854,24.1896024 25.9192073,11.9724771 33.0685976,4.40672783 C36.6432927,0.608562691 41.7637195,-0.850152905 46.8231707,0.486238532 C53.4588415,2.21865443 58.1234756,9.29816514 57.0335366,15.9847095 C56.367378,19.9663609 53.6097561,24.1590214 50.3689024,26.0428135 C47.1554878,27.9571865 42.5213415,28.4740061 39.0365854,27.3792049 Z M45.7926829,21.4235474 C48.9131098,20.3593272 50.9131098,17.4724771 50.9131098,14.0688073 C50.9131098,10.8776758 49.6097561,8.59938838 46.9146341,7.11009174 C45.5823171,6.38073394 44.945122,6.2293578 43.1890244,6.2293578 C41.3719512,6.2293578 40.8262195,6.38073394 39.402439,7.17125382 C36.4329268,8.84250765 34.7972561,12.3073394 35.4939024,15.4373089 C36.5518293,20.3302752 41.1875,23.0045872 45.7926829,21.4235474 Z" id="Shape"></path>
            </g>
        </g>
        <path id="Line" d="M257,285.201389 L238,275.701389 L238,294.701389 L257,285.201389 Z M103.5,286.701389 L239.5,286.701389 L241,286.701389 L241,283.701389 L239.5,283.701389 L103.5,283.701389 L102,283.701389 L102,286.701389 L103.5,286.701389 Z" fill="#000000" fill-rule="nonzero"></path>
    </g>
</svg>
