<?xml version="1.0" encoding="UTF-8"?>
<svg width="120px" height="120px" viewBox="0 0 352 385" version="1.1" xmlns="http://www.w3.org/2000/svg" xmlns:xlink="http://www.w3.org/1999/xlink">
    <!-- Generator: Sketch 51.2 (57519) - http://www.bohemiancoding.com/sketch -->
    <title>Slice 1</title>
    <desc>Created with Sketch.</desc>
    <defs></defs>
    <g id="Page-1" stroke="none" stroke-width="1" fill="none" fill-rule="evenodd">
        <ellipse id="Oval" stroke="#000000" stroke-width="2" fill-rule="nonzero" cx="180" cy="192" rx="144" ry="151"></ellipse>
        <g id="mouseArrow" transform="translate(180.000000, 170.000000) scale(-1, 1) translate(-180.000000, -170.000000) translate(130.000000, 95.000000)" fill="#000000" fill-rule="nonzero">
            <g id="Group" transform="translate(50.000000, 75.000000) scale(-1, 1) rotate(-180.000000) translate(-50.000000, -75.000000) ">
                <path d="M69.2025008,149.527089 C67.3848734,148.948577 66.0811223,148.067034 64.3839585,146.24273 C61.5660262,143.230793 60.4147606,139.611264 60.7182068,134.502602 C60.9911558,129.543924 63.0512351,124.465871 65.7182068,122.21457 C69.021043,119.447505 73.2037206,120.024487 76.9319915,123.795531 C80.3873132,127.294154 82.7813358,132.829813 82.810308,137.361494 C82.8697774,145.785124 76.2336078,151.717172 69.2025008,149.527089 Z M74.3534614,144.903581 C76.4745349,143.809305 77.6867948,142.01408 78.2326929,139.185797 C78.8380604,135.87083 76.8999695,130.486685 74.021043,127.384451 C70.8996645,124.038874 69.0500152,124.190389 67.0509302,127.992042 C65.1418115,131.61157 64.5959134,136.81206 65.8081732,140.097949 C67.3528515,144.234772 71.2930772,146.455464 74.3534614,144.903581 Z" id="Shape"></path>
                <path d="M61.5355291,116.008571 C56.9594389,115.460667 52.505337,113.726661 50.2622751,111.689624 C49.5654163,111.020814 44.7163769,107.278849 39.5349192,103.35476 L30.0792925,96.2075298 L19.9878012,93.2568105 C14.4114059,91.6437098 9.47240012,90.1545761 9.01799329,89.9709213 C7.10887466,89.2102847 6.68496493,86.9299051 8.17017383,85.4392409 C8.65507777,84.9525559 9.35193657,84.5576982 9.71637694,84.5576982 C10.0808173,84.5576982 15.3537664,86.0177533 21.4745349,87.8129783 L32.5968283,91.0376492 L42.1424215,98.2767065 C47.3848734,102.231405 51.7185117,105.454545 51.7490088,105.423936 C51.810003,105.393327 50.4147606,99.1888583 48.6886246,91.6452403 L45.536749,77.9583716 L34.6569076,63.3884298 L23.7770662,48.8184879 L12.5343092,27.8313437 C-0.651113144,3.19406183 0.0152485514,4.50107132 0.0152485514,3.49709213 C0.0152485514,2.46250383 1.53095456,0.912151821 2.56023178,0.912151821 C3.6810003,0.912151821 4.71180238,1.4600551 5.22720342,2.37220692 C5.50015249,2.82828283 10.8340958,12.7747169 17.136322,24.4857668 L28.5635865,45.7759412 L39.6248856,60.6198347 L50.7166819,75.4637282 L54.5959134,92.405877 C56.747484,101.71258 58.505642,109.438323 58.505642,109.560759 C58.505642,109.955617 61.5965233,110.411693 64.263495,110.411693 C68.9600488,110.411693 73.5376639,109.19498 77.537359,106.822773 C79.0835621,105.910621 79.4159805,105.575451 79.2955169,105.088766 C79.2040256,104.753597 75.8096981,97.1502908 71.7795059,88.2078359 L64.4144556,71.9344965 L64.5059469,56.8778696 L64.6264105,41.8212427 L63.7175968,42.7333946 C63.2326929,43.2506887 60.5352242,46.1095807 57.7172919,49.1215182 C54.9298567,52.1319253 52.3528515,54.7490052 52.0204331,54.9617386 C51.0506252,55.540251 49.8383654,55.4178145 48.989021,54.687787 C48.5651113,54.2929293 47.1408966,52.5589226 45.7761513,50.8249158 C42.958219,47.144169 42.715767,46.201408 44.2299482,44.6801347 C45.8661177,43.0379553 47.7447392,43.7679829 49.8673376,46.8396082 C50.3217444,47.5084175 50.8066484,48.0257117 50.9591339,47.9951025 C51.0795974,47.9338843 54.4449527,44.406183 58.4446478,40.1163147 C62.4748399,35.8279767 65.9606587,32.2390572 66.2336078,32.1166208 C67.294907,31.7217631 68.5376639,31.9344965 69.2650198,32.6951331 L70.0228728,33.4251607 L70.0228728,51.9482706 L70.0228728,70.4407713 L77.0204331,86.1080502 C80.8996645,94.7153352 84.0820372,101.802877 84.1415066,101.833486 C84.3244892,102.076829 85.3232693,101.225895 89.7179018,97.1793695 C92.2323879,94.8377717 94.3549863,92.647689 94.4449527,92.28191 C94.9603538,90.2142639 92.3848734,84.4046526 87.1119244,75.644322 C83.1716987,69.1659014 82.8697774,68.2537496 84.2329979,66.7936945 C85.2333028,65.7284971 87.2034157,65.6994184 88.1122293,66.6727885 C89.0820372,67.7670646 95.5062519,78.6256504 97.052455,81.8197123 C99.0225679,85.8647077 99.7804209,88.2675237 99.9618786,91.0361188 C100.112839,93.6516682 99.6584324,95.3856749 98.4172004,96.7232935 C96.4165904,98.8521579 88.1137542,106.27487 85.5977432,108.160392 C80.4757548,112.023263 75.5062519,114.456688 70.9301616,115.399449 C68.5361391,115.886134 63.3226593,116.221304 61.5355291,116.008571 Z" id="Shape"></path>
                <path d="M39.0484904,27.4043465 C29.1079597,24.2118151 25.9271119,11.9834711 33.0786825,4.41077441 C36.6544678,0.609121518 41.7764562,-0.850933578 46.8374504,0.486685032 C53.4751449,2.22069177 58.1412016,9.3067034 57.0509302,15.9993878 C56.3845685,19.9846954 53.6261055,24.181206 50.3842635,26.0667279 C47.1698689,27.9828589 42.5343092,28.500153 39.0484904,27.4043465 Z M45.8066484,21.4432201 C48.9280268,20.3780227 50.9286368,17.4885216 50.9286368,14.0817264 C50.9286368,10.8876645 49.6248856,8.60728497 46.9289418,7.11662075 C45.5962184,6.3865932 44.9588289,6.23507805 43.2021958,6.23507805 C41.3845685,6.23507805 40.8386703,6.3865932 39.4144556,7.177839 C36.4440378,8.85062749 34.8078683,12.318641 35.5047271,15.4514845 C36.5629765,20.348944 41.200061,23.0257117 45.8066484,21.4432201 Z" id="Shape"></path>
            </g>
        </g>
        <path id="Line" d="M106,287.25 L125,296.75 L125,277.75 L106,287.25 Z M253.5,285.75 L123.5,285.75 L122,285.75 L122,288.75 L123.5,288.75 L253.5,288.75 L255,288.75 L255,285.75 L253.5,285.75 Z" fill="#000000" fill-rule="nonzero"></path>
    </g>
</svg>
