<?xml version="1.0" encoding="utf-8"?>
<!-- Svg Vector Icons : http://www.onlinewebfonts.com/icon -->
<!DOCTYPE svg PUBLIC "-//W3C//DTD SVG 1.1//EN" "http://www.w3.org/Graphics/SVG/1.1/DTD/svg11.dtd">
<svg version="1.1" xmlns="http://www.w3.org/2000/svg" xmlns:xlink="http://www.w3.org/1999/xlink" x="0px" y="0px" viewBox="0 0 1000 1000" enable-background="new 0 0 1000 1000" xml:space="preserve" width='80px' height='80px'>
<metadata> Svg Vector Icons : http://www.onlinewebfonts.com/icon </metadata>
<g><g transform="translate(0.000000,511.000000) scale(0.100000,-0.100000)"><path d="M6259.3,4980.1c-119.2-37.8-204.7-95.4-316-214.6c-184.8-196.8-260.3-433.3-240.4-767.1c17.9-324,153-655.8,327.9-802.9c216.6-180.8,490.9-143.1,735.4,103.3c226.6,228.6,383.6,590.3,385.5,886.4C7155.6,4735.6,6720.4,5123.2,6259.3,4980.1z M6597.1,4678c139.1-71.5,218.6-188.8,254.4-373.6c39.7-216.6-87.4-568.4-276.2-771.1c-204.7-218.6-326-208.7-457.1,39.7c-125.2,236.5-161,576.3-81.5,791C6138,4634.3,6396.4,4779.4,6597.1,4678z"/><path d="M5756.5,2790c-300.1-35.8-592.2-149.1-739.3-282.2c-45.7-43.7-363.7-288.2-703.5-544.6l-620.1-467l-661.8-192.8c-365.7-105.4-689.6-202.7-719.4-214.7c-125.2-49.7-153-198.7-55.6-296.1c31.8-31.8,77.5-57.6,101.4-57.6c23.9,0,369.7,95.4,771.1,212.7l729.4,210.7l626,473c343.8,258.4,628,469,630,467c4-2-87.5-407.4-200.7-900.3l-206.7-894.3l-713.5-952l-713.5-952l-737.3-1371.3C1678.3-4581.3,1722-4495.9,1722-4561.5c0-67.6,99.4-168.9,166.9-168.9c73.5,0,141.1,35.8,174.9,95.4c17.9,29.8,367.7,679.7,781,1444.9L3594.2-1799l725.4,969.9L5047,140.8l254.4,1107c141.1,608.1,256.4,1112.9,256.4,1120.9c0,25.8,202.7,55.6,377.6,55.6c308,0,608.2-79.5,870.5-234.5c101.4-59.6,123.2-81.5,115.3-113.3c-6-21.9-228.6-518.7-492.9-1103L5945.3-89.8l6-983.8l7.9-983.8l-59.6,59.6c-31.8,33.8-208.7,220.6-393.5,417.4c-182.8,196.7-351.8,367.7-373.6,381.6c-63.6,37.8-143.1,29.8-198.8-17.9c-27.8-25.8-121.2-139.1-210.7-252.4c-184.8-240.5-200.7-302.1-101.4-401.5c107.3-107.3,230.5-59.6,369.7,141.1c29.8,43.7,61.6,77.5,71.6,75.5c7.9-4,228.6-234.5,490.9-514.8c264.3-280.2,492.9-514.7,510.8-522.7c69.6-25.8,151.1-11.9,198.8,37.8l49.7,47.7v1210.3v1208.3L6772,836.3c254.4,562.4,463.1,1025.5,467,1027.5c12,15.9,77.5-39.7,365.7-304.1c164.9-153,304.1-296.1,310-320c33.8-135.1-135.1-514.7-480.9-1087.1c-258.4-423.3-278.2-482.9-188.8-578.3c65.6-69.6,194.8-71.5,254.4-7.9c63.6,71.5,484.9,781,586.3,989.7c129.2,264.3,178.9,421.3,190.8,602.2c9.9,170.9-19.9,284.2-101.3,371.6c-131.2,139.1-675.7,624.1-840.7,747.3c-335.9,252.4-661.8,411.4-961.9,473C6215.6,2782,5873.7,2803.9,5756.5,2790z"/><path d="M4281.8-2999.4C3629.9-3208,3421.3-4007,3890.3-4501.8c234.5-248.4,570.4-343.8,902.3-256.4c435.3,113.3,741.3,576.3,669.8,1013.6c-43.7,260.4-224.6,534.6-437.2,657.8C4814.4-2961.6,4510.4-2927.8,4281.8-2999.4z M4725-3388.9c204.7-69.6,335.9-258.4,335.9-481c0-208.7-85.5-357.7-262.3-455.1c-87.4-47.7-129.2-57.6-244.4-57.6c-119.2,0-155,9.9-248.4,61.6c-194.8,109.3-302.1,335.9-256.4,540.6C4118.8-3460.4,4422.9-3285.5,4725-3388.9z"/></g></g>
</svg>
